<svg width="75" height="44" viewBox="0 0 75 44" fill="none" xmlns="http://www.w3.org/2000/svg">
<mask id="path-1-inside-1_73_2" fill="white">
<path d="M38.935 43.2804H27.6274L14.5239 22.3693L23.143 18.0792L38.935 43.2804Z"/>
</mask>
<path d="M38.935 43.2804H27.6274L14.5239 22.3693L23.143 18.0792L38.935 43.2804Z" fill="white"/>
<path d="M38.935 43.2804V44.2804H40.7418L39.7824 42.7494L38.935 43.2804ZM27.6274 43.2804L26.78 43.8114L27.0739 44.2804H27.6274V43.2804ZM14.5239 22.3693L14.0783 21.474L13.0908 21.9655L13.6765 22.9003L14.5239 22.3693ZM23.143 18.0792L23.9904 17.5482L23.509 16.78L22.6974 17.184L23.143 18.0792ZM38.935 43.2804V42.2804H27.6274V43.2804V44.2804H38.935V43.2804ZM27.6274 43.2804L28.4748 42.7494L15.3712 21.8383L14.5239 22.3693L13.6765 22.9003L26.78 43.8114L27.6274 43.2804ZM14.5239 22.3693L14.9695 23.2645L23.5886 18.9745L23.143 18.0792L22.6974 17.184L14.0783 21.474L14.5239 22.3693ZM23.143 18.0792L22.2956 18.6102L38.0876 43.8114L38.935 43.2804L39.7824 42.7494L23.9904 17.5482L23.143 18.0792Z" fill="black" mask="url(#path-1-inside-1_73_2)"/>
<rect x="5.80304" y="0.5" width="9.14289" height="42.2807" fill="white" stroke="black"/>
<rect x="-0.221344" y="0.637203" width="8.29783" height="34.2745" transform="matrix(0.476009 0.879441 -0.918696 0.394965 33.6971 9.34581)" fill="white" stroke="black"/>
<mask id="path-5-inside-2_73_2" fill="white">
<path d="M52.0219 9.03961C62.1082 9.03965 70.4471 15.4453 71.8051 23.7681L61.226 28.3023C61.436 27.6188 61.5501 26.9014 61.5502 26.1607C61.5502 21.5466 57.2155 17.8054 51.8685 17.8052C46.5214 17.8052 42.1859 21.5465 42.1859 26.1607C42.1862 30.7747 46.5216 34.5152 51.8685 34.5152C53.6499 34.5151 55.3175 34.097 56.7513 33.3726L63.9467 39.8961C60.6182 42.0216 56.4918 43.2808 52.0219 43.2808C40.9881 43.2808 32.0433 35.6151 32.0433 26.1597C32.0436 16.7045 40.9882 9.03961 52.0219 9.03961ZM59.6263 31.2554L59.5775 31.2115C59.5827 31.2056 59.587 31.1988 59.5922 31.1929L59.6263 31.2554Z"/>
</mask>
<path d="M52.0219 9.03961C62.1082 9.03965 70.4471 15.4453 71.8051 23.7681L61.226 28.3023C61.436 27.6188 61.5501 26.9014 61.5502 26.1607C61.5502 21.5466 57.2155 17.8054 51.8685 17.8052C46.5214 17.8052 42.1859 21.5465 42.1859 26.1607C42.1862 30.7747 46.5216 34.5152 51.8685 34.5152C53.6499 34.5151 55.3175 34.097 56.7513 33.3726L63.9467 39.8961C60.6182 42.0216 56.4918 43.2808 52.0219 43.2808C40.9881 43.2808 32.0433 35.6151 32.0433 26.1597C32.0436 16.7045 40.9882 9.03961 52.0219 9.03961ZM59.6263 31.2554L59.5775 31.2115C59.5827 31.2056 59.587 31.1988 59.5922 31.1929L59.6263 31.2554Z" fill="white"/>
<path d="M52.0219 9.03961L52.0219 8.03961H52.0219V9.03961ZM71.8051 23.7681L72.199 24.6873L72.918 24.3791L72.792 23.6071L71.8051 23.7681ZM61.226 28.3023L60.2701 28.0085L59.636 30.0718L61.6199 29.2214L61.226 28.3023ZM61.5502 26.1607L62.5502 26.1608V26.1607H61.5502ZM51.8685 17.8052L51.8686 16.8052H51.8685V17.8052ZM42.1859 26.1607L41.1859 26.1607L41.1859 26.1608L42.1859 26.1607ZM51.8685 34.5152L51.8685 35.5152L51.8686 35.5152L51.8685 34.5152ZM56.7513 33.3726L57.423 32.6318L56.9138 32.1701L56.3004 32.4801L56.7513 33.3726ZM63.9467 39.8961L64.4849 40.7389L65.5881 40.0344L64.6183 39.1552L63.9467 39.8961ZM52.0219 43.2808L52.0219 44.2808L52.0219 44.2808L52.0219 43.2808ZM32.0433 26.1597L31.0433 26.1597V26.1597H32.0433ZM59.6263 31.2554L58.9574 31.9987L60.5037 30.7756L59.6263 31.2554ZM59.5775 31.2115L58.8273 30.5503L58.173 31.2927L58.9085 31.9548L59.5775 31.2115ZM59.5922 31.1929L60.4695 30.7131L59.7831 29.458L58.8401 30.5338L59.5922 31.1929ZM52.0219 9.03961L52.0218 10.0396C61.7268 10.0397 69.5554 16.19 70.8181 23.9292L71.8051 23.7681L72.792 23.6071C71.3388 14.7005 62.4896 8.03965 52.0219 8.03961L52.0219 9.03961ZM71.8051 23.7681L71.4111 22.849L60.832 27.3832L61.226 28.3023L61.6199 29.2214L72.199 24.6873L71.8051 23.7681ZM61.226 28.3023L62.1818 28.5961C62.42 27.8213 62.5501 27.0051 62.5502 26.1608L61.5502 26.1607L60.5502 26.1606C60.5501 26.7978 60.4521 27.4162 60.2701 28.0085L61.226 28.3023ZM61.5502 26.1607H62.5502C62.5502 20.8611 57.6244 16.8055 51.8686 16.8052L51.8685 17.8052L51.8685 18.8052C56.8065 18.8054 60.5502 22.2321 60.5502 26.1607H61.5502ZM51.8685 17.8052V16.8052C46.1126 16.8052 41.1859 20.8609 41.1859 26.1607H42.1859H43.1859C43.1859 22.232 46.9302 18.8052 51.8685 18.8052V17.8052ZM42.1859 26.1607L41.1859 26.1608C41.1863 31.4604 46.1128 35.5152 51.8685 35.5152V34.5152V33.5152C46.9303 33.5152 43.1862 30.0891 43.1859 26.1606L42.1859 26.1607ZM51.8685 34.5152L51.8686 35.5152C53.8066 35.5151 55.6286 35.0602 57.2023 34.2652L56.7513 33.3726L56.3004 32.4801C55.0064 33.1338 53.4933 33.5151 51.8685 33.5152L51.8685 34.5152ZM56.7513 33.3726L56.0797 34.1135L63.275 40.6369L63.9467 39.8961L64.6183 39.1552L57.423 32.6318L56.7513 33.3726ZM63.9467 39.8961L63.4084 39.0532C60.2437 41.0742 56.3046 42.2808 52.0218 42.2808L52.0219 43.2808L52.0219 44.2808C56.679 44.2808 60.9927 42.9689 64.4849 40.7389L63.9467 39.8961ZM52.0219 43.2808V42.2808C41.39 42.2808 33.0433 34.9236 33.0433 26.1597H32.0433H31.0433C31.0433 36.3066 40.5861 44.2808 52.0219 44.2808V43.2808ZM32.0433 26.1597L33.0433 26.1598C33.0436 17.3961 41.3901 10.0396 52.0219 10.0396V9.03961V8.03961C40.5864 8.03961 31.0436 16.013 31.0433 26.1597L32.0433 26.1597ZM59.6263 31.2554L60.2953 30.5121L60.2465 30.4682L59.5775 31.2115L58.9085 31.9548L58.9574 31.9987L59.6263 31.2554ZM59.5775 31.2115L60.3277 31.8727C60.3463 31.8516 60.3607 31.8336 60.3698 31.8219C60.3744 31.816 60.3782 31.811 60.3808 31.8076C60.3832 31.8044 60.3853 31.8016 60.3857 31.801C60.3867 31.7998 60.3858 31.8009 60.3848 31.8023C60.3835 31.8039 60.3811 31.8072 60.3778 31.8114C60.3714 31.8196 60.3598 31.8343 60.3442 31.8521L59.5922 31.1929L58.8401 30.5338C58.822 30.5545 58.8079 30.5723 58.7991 30.5836C58.7946 30.5893 58.7909 30.5942 58.7885 30.5974C58.7862 30.6003 58.7842 30.6031 58.7839 30.6034C58.7832 30.6044 58.7841 30.6032 58.7853 30.6016C58.7867 30.5998 58.7893 30.5963 58.7927 30.5919C58.7994 30.5834 58.8114 30.5684 58.8273 30.5503L59.5775 31.2115ZM59.5922 31.1929L58.7148 31.6727L58.749 31.7352L59.6263 31.2554L60.5037 30.7756L60.4695 30.7131L59.5922 31.1929Z" fill="black" mask="url(#path-5-inside-2_73_2)"/>
<path d="M73.3751 23.0874L36.935 38.7537L32.9823 31.451L69.7491 15.1562L73.3751 23.0874Z" fill="white" stroke="black"/>
<mask id="path-8-inside-3_73_2" fill="white">
<path d="M64.1537 39.9281C60.8253 42.0535 56.6987 43.3128 52.2289 43.3129C46.9577 43.3128 42.1642 41.5619 38.5941 38.7035L49.1605 34.1605C50.0806 34.411 51.0597 34.5472 52.0756 34.5472C53.8568 34.5472 55.5247 34.129 56.9584 33.4047L64.1537 39.9281ZM59.8344 31.2885L59.7845 31.2435C59.7897 31.2377 59.7941 31.2308 59.7992 31.225L59.8344 31.2885Z"/>
</mask>
<path d="M64.1537 39.9281C60.8253 42.0535 56.6987 43.3128 52.2289 43.3129C46.9577 43.3128 42.1642 41.5619 38.5941 38.7035L49.1605 34.1605C50.0806 34.411 51.0597 34.5472 52.0756 34.5472C53.8568 34.5472 55.5247 34.129 56.9584 33.4047L64.1537 39.9281ZM59.8344 31.2885L59.7845 31.2435C59.7897 31.2377 59.7941 31.2308 59.7992 31.225L59.8344 31.2885Z" fill="white"/>
<path d="M64.1537 39.9281L64.6919 40.7709L65.7951 40.0665L64.8254 39.1873L64.1537 39.9281ZM52.2289 43.3129L52.2289 44.3129L52.2289 44.3129L52.2289 43.3129ZM38.5941 38.7035L38.1991 37.7848L36.6686 38.4428L37.9691 39.4841L38.5941 38.7035ZM49.1605 34.1605L49.4232 33.1956L49.0863 33.1039L48.7655 33.2418L49.1605 34.1605ZM52.0756 34.5472L52.0755 35.5472L52.0756 35.5472L52.0756 34.5472ZM56.9584 33.4047L57.63 32.6638L57.1209 32.2022L56.5074 32.5121L56.9584 33.4047ZM59.8344 31.2885L59.1646 32.031L60.7091 30.804L59.8344 31.2885ZM59.7845 31.2435L59.0343 30.5823L58.3807 31.324L59.1148 31.9861L59.7845 31.2435ZM59.7992 31.225L60.674 30.7405L59.9806 29.4885L59.0434 30.5701L59.7992 31.225ZM64.1537 39.9281L63.6155 39.0853C60.4508 41.1061 56.5114 42.3128 52.2289 42.3129L52.2289 43.3129L52.2289 44.3129C56.8859 44.3128 61.1998 43.0008 64.6919 40.7709L64.1537 39.9281ZM52.2289 43.3129L52.2289 42.3129C47.1775 42.3128 42.6061 40.6347 39.2191 37.9229L38.5941 38.7035L37.9691 39.4841C41.7223 42.4892 46.738 44.3128 52.2289 44.3129L52.2289 43.3129ZM38.5941 38.7035L38.9891 39.6222L49.5555 35.0792L49.1605 34.1605L48.7655 33.2418L38.1991 37.7848L38.5941 38.7035ZM49.1605 34.1605L48.8979 35.1254C49.9028 35.399 50.9701 35.5472 52.0755 35.5472L52.0756 34.5472L52.0756 33.5472C51.1492 33.5472 50.2584 33.423 49.4232 33.1956L49.1605 34.1605ZM52.0756 34.5472L52.0756 35.5472C54.0134 35.5472 55.8358 35.0922 57.4093 34.2972L56.9584 33.4047L56.5074 32.5121C55.2136 33.1658 53.7001 33.5472 52.0755 33.5472L52.0756 34.5472ZM56.9584 33.4047L56.2867 34.1455L63.482 40.6689L64.1537 39.9281L64.8254 39.1873L57.63 32.6638L56.9584 33.4047ZM59.8344 31.2885L60.5041 30.5459L60.4543 30.501L59.7845 31.2435L59.1148 31.9861L59.1646 32.031L59.8344 31.2885ZM59.7845 31.2435L60.5348 31.9047C60.5529 31.8842 60.5669 31.8666 60.5757 31.8555C60.5801 31.8497 60.5839 31.8449 60.5864 31.8415C60.5888 31.8383 60.5909 31.8356 60.5915 31.8348C60.5926 31.8333 60.5919 31.8342 60.5912 31.8351C60.5903 31.8364 60.5882 31.8391 60.5854 31.8427C60.58 31.8497 60.5694 31.8632 60.555 31.8798L59.7992 31.225L59.0434 30.5701C59.0265 30.5897 59.0134 30.6063 59.0056 30.6163C59.0016 30.6215 58.9983 30.6258 58.9961 30.6286C58.9942 30.6311 58.9924 30.6336 58.9923 30.6338C58.9917 30.6346 58.9925 30.6334 58.9938 30.6318C58.9951 30.63 58.9976 30.6267 59.0009 30.6225C59.0072 30.6145 59.0188 30.6 59.0343 30.5823L59.7845 31.2435ZM59.7992 31.225L58.9244 31.7095L58.9596 31.773L59.8344 31.2885L60.7091 30.804L60.674 30.7405L59.7992 31.225Z" fill="black" mask="url(#path-8-inside-3_73_2)"/>
</svg>
