<svg width="72" height="44" viewBox="0 0 72 44" fill="none" xmlns="http://www.w3.org/2000/svg">
<path fill-rule="evenodd" clip-rule="evenodd" d="M22.1431 18.0792L13.5239 22.3692L26.6278 43.2806H37.9352L22.1431 18.0792Z" fill="#609E31"/>
<rect x="4.3031" width="10.1429" height="43.2807" fill="#2A4920"/>
<rect width="9.29783" height="35.0798" transform="matrix(0.476009 0.879441 -0.918696 0.394965 32.2277 8.76562)" fill="#BADA15"/>
<path fill-rule="evenodd" clip-rule="evenodd" d="M51.0218 43.2806C55.4918 43.2806 59.6189 42.0226 62.9474 39.8972L55.7536 33.3749C54.3195 34.0996 52.65 34.515 50.8681 34.515C45.5209 34.515 41.1862 30.7745 41.1862 26.1602C41.1862 21.546 45.5209 17.8054 50.8681 17.8054C56.2152 17.8054 60.5499 21.546 60.5499 26.1602C60.5499 26.9005 60.4384 27.6182 60.229 28.3017L70.8068 23.7687C69.4493 15.4454 61.1085 9.03961 51.0218 9.03961C39.988 9.03961 31.0433 16.7047 31.0433 26.1601C31.0433 35.6155 39.988 43.2806 51.0218 43.2806ZM58.6267 31.2561L58.5943 31.196C58.5893 31.2017 58.5843 31.2074 58.5793 31.2131L58.6267 31.2561Z" fill="#2A4920"/>
<rect width="9.29783" height="39.0651" transform="matrix(0.476009 0.879441 -0.918696 0.394965 67.5741 15.6139)" fill="#BADA15"/>
<path fill-rule="evenodd" clip-rule="evenodd" d="M48.1598 34.1612L37.5928 38.7042C41.163 41.5628 45.9578 43.3125 51.2294 43.3125C55.6994 43.3125 59.8266 42.0545 63.1551 39.929L55.9612 33.4067C54.5271 34.1314 52.8577 34.5468 51.0758 34.5468C50.0597 34.5468 49.0801 34.4117 48.1598 34.1612ZM33.6915 34.3986L32.5804 32.3459C32.8989 33.054 33.2706 33.7395 33.6915 34.3986ZM58.8019 31.2279L58.8341 31.2876L58.7869 31.2449L58.8019 31.2279Z" fill="#609E31"/>
</svg>
